<svg width="17" height="18" viewBox="0 0 17 18" fill="none" xmlns="http://www.w3.org/2000/svg">
<mask id="path-1-inside-1" fill="white">
<path fill-rule="evenodd" clip-rule="evenodd" d="M8.5 9C10.9853 9 13 6.98528 13 4.5C13 2.01472 10.9853 0 8.5 0C6.01472 0 4 2.01472 4 4.5C4 6.98528 6.01472 9 8.5 9ZM0 14.3684C0 11.8058 1.50908 9.54872 3.79889 8.22858C4.89802 9.61253 6.59537 10.5 8.5 10.5C10.4046 10.5 12.102 9.61253 13.2011 8.22857C15.4909 9.54871 17 11.8058 17 14.3684C17 18.4378 8.5 17.985 8.5 17.985C8.5 17.985 0 18.4378 0 14.3684Z"/>
</mask>
<path d="M3.79889 8.22858L5.36505 6.98474L4.29314 5.63505L2.79996 6.49591L3.79889 8.22858ZM13.2011 8.22857L14.2 6.4959L12.7069 5.63505L11.6349 6.98474L13.2011 8.22857ZM8.5 17.985L8.60639 15.9878L8.5 15.9822L8.39361 15.9878L8.5 17.985ZM11 4.5C11 5.88071 9.88072 7 8.5 7V11C12.0899 11 15 8.08985 15 4.5H11ZM8.5 2C9.88072 2 11 3.11929 11 4.5H15C15 0.910149 12.0899 -2 8.5 -2V2ZM6 4.5C6 3.11929 7.11929 2 8.5 2V-2C4.91015 -2 2 0.910149 2 4.5H6ZM8.5 7C7.11929 7 6 5.88071 6 4.5H2C2 8.08985 4.91015 11 8.5 11V7ZM2.79996 6.49591C0.000587307 8.10982 -2 10.9724 -2 14.3684H2C2 12.6391 3.01756 10.9876 4.79782 9.96125L2.79996 6.49591ZM8.5 8.49998C7.2312 8.49998 6.1011 7.91152 5.36505 6.98474L2.23273 9.47242C3.69494 11.3135 5.95954 12.5 8.5 12.5V8.49998ZM11.6349 6.98474C10.8989 7.91152 9.76879 8.49998 8.5 8.49998V12.5C11.0405 12.5 13.3051 11.3135 14.7673 9.47241L11.6349 6.98474ZM19 14.3684C19 10.9724 16.9994 8.10982 14.2 6.4959L12.2022 9.96124C13.9824 10.9876 15 12.6391 15 14.3684H19ZM8.5 17.985C8.39361 19.9822 8.39411 19.9822 8.39464 19.9822C8.39487 19.9822 8.39543 19.9823 8.39587 19.9823C8.39676 19.9823 8.39777 19.9824 8.39892 19.9824C8.40121 19.9826 8.40402 19.9827 8.40734 19.9829C8.41399 19.9832 8.4227 19.9836 8.43338 19.9841C8.45476 19.9851 8.48411 19.9863 8.52089 19.9877C8.59443 19.9904 8.69791 19.9937 8.8271 19.9961C9.08506 20.0011 9.44784 20.0029 9.88116 19.9915C10.7386 19.9687 11.9142 19.8926 13.1159 19.6689C14.2847 19.4514 15.6543 19.0637 16.7792 18.3157C17.9731 17.5219 19 16.2275 19 14.3684H15C15 14.5439 14.9644 14.7189 14.5646 14.9848C14.0957 15.2965 13.3403 15.5585 12.3841 15.7365C11.4608 15.9083 10.5114 15.9733 9.77509 15.9929C9.41153 16.0025 9.11026 16.0008 8.90337 15.9969C8.80014 15.9949 8.721 15.9924 8.67003 15.9905C8.64456 15.9895 8.62617 15.9887 8.61538 15.9882C8.60999 15.988 8.6065 15.9878 8.60498 15.9878C8.60422 15.9877 8.60395 15.9877 8.60418 15.9877C8.6043 15.9877 8.60454 15.9877 8.6049 15.9878C8.60509 15.9878 8.60546 15.9878 8.60555 15.9878C8.60595 15.9878 8.60639 15.9878 8.5 17.985ZM-2 14.3684C-2 16.2275 -0.973137 17.5219 0.220802 18.3157C1.34574 19.0637 2.71532 19.4514 3.88406 19.6689C5.08585 19.8926 6.26135 19.9687 7.11884 19.9915C7.55216 20.0029 7.91494 20.0011 8.1729 19.9961C8.30209 19.9937 8.40557 19.9904 8.47911 19.9877C8.51589 19.9863 8.54524 19.9851 8.56662 19.9841C8.5773 19.9836 8.58601 19.9832 8.59266 19.9829C8.59598 19.9827 8.59879 19.9826 8.60108 19.9824C8.60223 19.9824 8.60324 19.9823 8.60413 19.9823C8.60457 19.9823 8.60513 19.9822 8.60536 19.9822C8.60589 19.9822 8.60639 19.9822 8.5 17.985C8.39361 15.9878 8.39405 15.9878 8.39445 15.9878C8.39454 15.9878 8.39491 15.9878 8.3951 15.9878C8.39546 15.9877 8.3957 15.9877 8.39582 15.9877C8.39605 15.9877 8.39578 15.9877 8.39502 15.9878C8.3935 15.9878 8.39001 15.988 8.38462 15.9882C8.37383 15.9887 8.35544 15.9895 8.32997 15.9905C8.279 15.9924 8.19986 15.9949 8.09663 15.9969C7.88974 16.0008 7.58847 16.0025 7.22491 15.9929C6.48865 15.9733 5.53915 15.9083 4.61594 15.7365C3.65968 15.5585 2.90426 15.2965 2.43545 14.9848C2.03564 14.7189 2 14.5439 2 14.3684H-2Z" fill="white" mask="url(#path-1-inside-1)"/>
</svg>
