<svg width="15" height="16" viewBox="0 0 15 16" fill="none" xmlns="http://www.w3.org/2000/svg">
<path d="M8.2278 0.777771C4.68646 0.777771 1.81531 3.64842 1.81531 7.18975C1.81531 8.44802 2.17764 9.62178 2.80385 10.6121C2.79925 10.6141 2.79474 10.6159 2.79013 10.618L0 13.4077L2.37013 15.7778L5.26074 12.8867C5.25988 12.8826 5.25871 12.8785 5.25781 12.8744C6.14575 13.3393 7.15613 13.6022 8.22781 13.6022C11.7692 13.6022 14.6398 10.7311 14.6398 7.18977C14.6398 3.64842 11.7691 0.777771 8.2278 0.777771ZM8.2278 3.62623C10.1958 3.62623 11.7908 5.22172 11.7908 7.18975C11.7908 9.15777 10.1958 10.7533 8.2278 10.7533C6.25978 10.7533 4.66428 9.15777 4.66428 7.18975C4.66428 5.22172 6.25976 3.62623 8.2278 3.62623Z" fill="#F2C94C"/>
</svg>
