<svg width="205" height="34" viewBox="0 0 205 34" fill="none" xmlns="http://www.w3.org/2000/svg">
<path d="M12.818 23.7963V27.0141H0V8.13297H12.584V11.3507H3.588V15.8982H11.362V18.8766H3.588V23.7963H12.818Z" fill="url(#paint0_linear)"/>
<path d="M20.2729 27.28C19.1289 27.28 18.0109 27.0939 16.9189 26.7216C15.8269 26.3493 14.8909 25.8174 14.1109 25.126L15.4109 22.8921C16.2429 23.4949 17.0489 23.9559 17.8289 24.275C18.6262 24.5764 19.4149 24.7271 20.1949 24.7271C20.8882 24.7271 21.4342 24.5941 21.8329 24.3282C22.2316 24.0622 22.4309 23.6811 22.4309 23.1847C22.4309 22.6883 22.1969 22.3248 21.7289 22.0944C21.2609 21.8639 20.4982 21.5979 19.4409 21.2966C18.5569 21.0484 17.8029 20.809 17.1789 20.5785C16.5549 20.3481 16.0522 20.091 15.6709 19.8073C15.2896 19.506 15.0122 19.1691 14.8389 18.7968C14.6656 18.4068 14.5789 17.9458 14.5789 17.414C14.5789 16.7048 14.7089 16.0666 14.9689 15.4993C15.2462 14.9319 15.6276 14.4533 16.1129 14.0632C16.5982 13.6555 17.1616 13.3452 17.8029 13.1325C18.4616 12.9197 19.1722 12.8134 19.9349 12.8134C20.9576 12.8134 21.9109 12.9641 22.7949 13.2654C23.6962 13.5668 24.5196 14.0544 25.2649 14.7281L23.8609 16.8821C23.1676 16.3502 22.4916 15.9602 21.8329 15.712C21.1916 15.4638 20.5502 15.3397 19.9089 15.3397C19.3196 15.3397 18.8256 15.4638 18.4269 15.712C18.0282 15.9602 17.8289 16.3591 17.8289 16.9087C17.8289 17.1569 17.8722 17.3608 17.9589 17.5203C18.0629 17.6799 18.2189 17.8217 18.4269 17.9458C18.6349 18.0699 18.9036 18.194 19.2329 18.3181C19.5796 18.4245 20.0042 18.5397 20.5069 18.6638C21.4429 18.912 22.2402 19.1602 22.8989 19.4084C23.5749 19.6567 24.1209 19.9403 24.5369 20.2594C24.9702 20.5785 25.2822 20.9509 25.4729 21.3763C25.6809 21.7841 25.7849 22.2805 25.7849 22.8656C25.7849 24.2307 25.2909 25.3121 24.3029 26.1099C23.3149 26.89 21.9716 27.28 20.2729 27.28Z" fill="url(#paint1_linear)"/>
<path d="M33.1967 27.28C32.0527 27.28 30.9347 27.0939 29.8427 26.7216C28.7507 26.3493 27.8147 25.8174 27.0347 25.126L28.3347 22.8921C29.1667 23.4949 29.9727 23.9559 30.7527 24.275C31.5501 24.5764 32.3387 24.7271 33.1187 24.7271C33.812 24.7271 34.3581 24.5941 34.7567 24.3282C35.1554 24.0622 35.3547 23.6811 35.3547 23.1847C35.3547 22.6883 35.1207 22.3248 34.6527 22.0944C34.1847 21.8639 33.4221 21.5979 32.3647 21.2966C31.4807 21.0484 30.7267 20.809 30.1027 20.5785C29.4787 20.3481 28.9761 20.091 28.5947 19.8073C28.2134 19.506 27.9361 19.1691 27.7627 18.7968C27.5894 18.4068 27.5027 17.9458 27.5027 17.414C27.5027 16.7048 27.6327 16.0666 27.8927 15.4993C28.1701 14.9319 28.5514 14.4533 29.0367 14.0632C29.5221 13.6555 30.0854 13.3452 30.7267 13.1325C31.3854 12.9197 32.0961 12.8134 32.8587 12.8134C33.8814 12.8134 34.8347 12.9641 35.7187 13.2654C36.6201 13.5668 37.4434 14.0544 38.1887 14.7281L36.7847 16.8821C36.0914 16.3502 35.4154 15.9602 34.7567 15.712C34.1154 15.4638 33.4741 15.3397 32.8327 15.3397C32.2434 15.3397 31.7494 15.4638 31.3507 15.712C30.9521 15.9602 30.7527 16.3591 30.7527 16.9087C30.7527 17.1569 30.7961 17.3608 30.8827 17.5203C30.9867 17.6799 31.1427 17.8217 31.3507 17.9458C31.5587 18.0699 31.8274 18.194 32.1567 18.3181C32.5034 18.4245 32.9281 18.5397 33.4307 18.6638C34.3667 18.912 35.1641 19.1602 35.8227 19.4084C36.4987 19.6567 37.0447 19.9403 37.4607 20.2594C37.8941 20.5785 38.2061 20.9509 38.3967 21.3763C38.6047 21.7841 38.7087 22.2805 38.7087 22.8656C38.7087 24.2307 38.2147 25.3121 37.2267 26.1099C36.2387 26.89 34.8954 27.28 33.1967 27.28Z" fill="url(#paint2_linear)"/>
<path d="M44.6905 27.28C44.0319 27.28 43.4165 27.1736 42.8445 26.9609C42.2725 26.7304 41.7785 26.4202 41.3625 26.0301C40.9465 25.6224 40.6172 25.1526 40.3745 24.6207C40.1492 24.0888 40.0365 23.5038 40.0365 22.8656C40.0365 22.2096 40.1752 21.6068 40.4525 21.0572C40.7472 20.4899 41.1459 20.0112 41.6485 19.6212C42.1685 19.2312 42.7839 18.9298 43.4945 18.717C44.2052 18.4866 44.9852 18.3713 45.8345 18.3713C46.4412 18.3713 47.0305 18.4245 47.6025 18.5309C48.1919 18.6372 48.7119 18.7879 49.1625 18.983V18.1852C49.1625 17.2633 48.9025 16.5541 48.3825 16.0577C47.8799 15.5613 47.1259 15.3131 46.1205 15.3131C45.3925 15.3131 44.6819 15.4461 43.9885 15.712C43.2952 15.9779 42.5845 16.368 41.8565 16.8821L40.7905 14.6217C42.5412 13.4339 44.4305 12.8399 46.4585 12.8399C48.4172 12.8399 49.9339 13.3364 51.0085 14.3292C52.1005 15.3042 52.6465 16.7225 52.6465 18.5841V22.9187C52.6465 23.291 52.7072 23.557 52.8285 23.7165C52.9672 23.8761 53.1839 23.9647 53.4785 23.9825V27.0141C52.8892 27.1382 52.3779 27.2002 51.9445 27.2002C51.2859 27.2002 50.7745 27.0495 50.4105 26.7482C50.0639 26.4468 49.8472 26.0479 49.7605 25.5515L49.6825 24.7803C49.0759 25.5958 48.3392 26.2163 47.4725 26.6418C46.6059 27.0673 45.6785 27.28 44.6905 27.28ZM45.6785 24.6739C46.2679 24.6739 46.8225 24.5675 47.3425 24.3548C47.8799 24.142 48.2959 23.8584 48.5905 23.5038C48.9719 23.2024 49.1625 22.8656 49.1625 22.4933V20.8977C48.7465 20.7381 48.2959 20.614 47.8105 20.5254C47.3252 20.419 46.8572 20.3658 46.4065 20.3658C45.5052 20.3658 44.7685 20.5785 44.1965 21.004C43.6245 21.4118 43.3385 21.9348 43.3385 22.573C43.3385 23.1758 43.5639 23.6811 44.0145 24.0888C44.4652 24.4789 45.0199 24.6739 45.6785 24.6739Z" fill="url(#paint3_linear)"/>
<path d="M55.8582 29.7266C56.1528 29.8152 56.4388 29.8773 56.7162 29.9127C56.9935 29.9659 57.2275 29.9925 57.4182 29.9925C57.6435 29.9925 57.8515 29.9482 58.0422 29.8595C58.2328 29.7709 58.4062 29.6113 58.5622 29.3809C58.7182 29.1681 58.8742 28.8667 59.0302 28.4767C59.1862 28.0867 59.3508 27.5991 59.5242 27.0141L54.1422 13.0793H57.7302L61.4222 23.9293L64.6982 13.0793H67.9742L62.2542 29.7798C61.9248 30.7548 61.3615 31.5526 60.5642 32.1731C59.7668 32.7937 58.7788 33.1039 57.6002 33.1039C57.3228 33.1039 57.0368 33.0773 56.7422 33.0241C56.4648 32.9887 56.1702 32.9178 55.8582 32.8114V29.7266Z" fill="url(#paint4_linear)"/>
<path d="M74.7104 27.28C73.5664 27.28 72.4484 27.0939 71.3564 26.7216C70.2644 26.3493 69.3284 25.8174 68.5484 25.126L69.8484 22.8921C70.6804 23.4949 71.4864 23.9559 72.2664 24.275C73.0637 24.5764 73.8524 24.7271 74.6324 24.7271C75.3257 24.7271 75.8717 24.5941 76.2704 24.3282C76.6691 24.0622 76.8684 23.6811 76.8684 23.1847C76.8684 22.6883 76.6344 22.3248 76.1664 22.0944C75.6984 21.8639 74.9357 21.5979 73.8784 21.2966C72.9944 21.0484 72.2404 20.809 71.6164 20.5785C70.9924 20.3481 70.4897 20.091 70.1084 19.8073C69.7271 19.506 69.4497 19.1691 69.2764 18.7968C69.1031 18.4068 69.0164 17.9458 69.0164 17.414C69.0164 16.7048 69.1464 16.0666 69.4064 15.4993C69.6837 14.9319 70.0651 14.4533 70.5504 14.0632C71.0357 13.6555 71.5991 13.3452 72.2404 13.1325C72.8991 12.9197 73.6097 12.8134 74.3724 12.8134C75.3951 12.8134 76.3484 12.9641 77.2324 13.2654C78.1337 13.5668 78.9571 14.0544 79.7024 14.7281L78.2984 16.8821C77.6051 16.3502 76.9291 15.9602 76.2704 15.712C75.6291 15.4638 74.9877 15.3397 74.3464 15.3397C73.7571 15.3397 73.2631 15.4638 72.8644 15.712C72.4657 15.9602 72.2664 16.3591 72.2664 16.9087C72.2664 17.1569 72.3097 17.3608 72.3964 17.5203C72.5004 17.6799 72.6564 17.8217 72.8644 17.9458C73.0724 18.0699 73.3411 18.194 73.6704 18.3181C74.0171 18.4245 74.4417 18.5397 74.9444 18.6638C75.8804 18.912 76.6777 19.1602 77.3364 19.4084C78.0124 19.6567 78.5584 19.9403 78.9744 20.2594C79.4077 20.5785 79.7197 20.9509 79.9104 21.3763C80.1184 21.7841 80.2224 22.2805 80.2224 22.8656C80.2224 24.2307 79.7284 25.3121 78.7404 26.1099C77.7524 26.89 76.4091 27.28 74.7104 27.28Z" fill="url(#paint5_linear)"/>
<path d="M128.101 23.9027C128.95 23.9027 129.661 23.7254 130.233 23.3708C130.822 23.0163 131.29 22.5553 131.637 21.988C132.001 21.4207 132.252 20.7736 132.391 20.0467C132.547 19.3021 132.625 18.5397 132.625 17.7597V8.13297H136.187V17.7597C136.187 19.0539 136.031 20.2683 135.719 21.4029C135.424 22.5376 134.947 23.5304 134.289 24.3814C133.647 25.2323 132.815 25.906 131.793 26.4024C130.77 26.8988 129.548 27.147 128.127 27.147C126.653 27.147 125.397 26.89 124.357 26.3758C123.334 25.844 122.502 25.1526 121.861 24.3016C121.219 23.4329 120.751 22.4312 120.457 21.2966C120.179 20.1619 120.041 18.983 120.041 17.7597V8.13297H123.629V17.7597C123.629 18.5575 123.698 19.3287 123.837 20.0733C123.993 20.8002 124.244 21.4473 124.591 22.0146C124.955 22.5819 125.423 23.0428 125.995 23.3974C126.567 23.7343 127.269 23.9027 128.101 23.9027Z" fill="url(#paint6_linear)"/>
<path d="M150.799 13.0793C150.677 12.9552 150.452 12.7868 150.123 12.574C149.811 12.3613 149.421 12.1574 148.953 11.9624C148.502 11.7496 148.008 11.5723 147.471 11.4305C146.933 11.2887 146.387 11.2178 145.833 11.2178C144.845 11.2178 144.108 11.4039 143.623 11.7762C143.137 12.1485 142.895 12.6715 142.895 13.3452C142.895 13.7353 142.981 14.0632 143.155 14.3292C143.345 14.5774 143.614 14.799 143.961 14.994C144.307 15.189 144.741 15.3663 145.261 15.5259C145.798 15.6854 146.413 15.8538 147.107 16.0311C148.008 16.2793 148.823 16.5453 149.551 16.8289C150.296 17.1126 150.92 17.4672 151.423 17.8926C151.943 18.3181 152.341 18.8323 152.619 19.435C152.896 20.0201 153.035 20.747 153.035 21.6157C153.035 22.6262 152.844 23.4949 152.463 24.2218C152.099 24.931 151.596 25.5071 150.955 25.9504C150.331 26.3936 149.603 26.7216 148.771 26.9343C147.956 27.1293 147.098 27.2268 146.197 27.2268C144.81 27.2268 143.441 27.0141 142.089 26.5886C140.737 26.1631 139.523 25.5603 138.449 24.7803L140.035 21.6157C140.191 21.7752 140.468 21.988 140.867 22.2539C141.283 22.5021 141.768 22.7592 142.323 23.0251C142.877 23.2733 143.493 23.4861 144.169 23.6633C144.845 23.8406 145.538 23.9293 146.249 23.9293C148.225 23.9293 149.213 23.2822 149.213 21.988C149.213 21.5802 149.1 21.2345 148.875 20.9508C148.649 20.6672 148.329 20.419 147.913 20.2062C147.497 19.9935 146.994 19.7985 146.405 19.6212C145.815 19.4439 145.157 19.2489 144.429 19.0361C143.545 18.7879 142.773 18.522 142.115 18.2383C141.473 17.937 140.936 17.5913 140.503 17.2012C140.069 16.7935 139.74 16.3325 139.515 15.8184C139.307 15.2865 139.203 14.6571 139.203 13.9303C139.203 12.9729 139.376 12.1219 139.723 11.3773C140.069 10.6327 140.546 10.0122 141.153 9.51581C141.777 9.0194 142.496 8.6471 143.311 8.3989C144.125 8.13297 145.001 8 145.937 8C147.237 8 148.433 8.21274 149.525 8.63823C150.617 9.046 151.57 9.53354 152.385 10.1009L150.799 13.0793Z" fill="url(#paint7_linear)"/>
<path d="M160.693 8.13297H163.865L170.885 27.0141H167.193L165.477 22.3071H159.029L157.339 27.0141H153.647L160.693 8.13297ZM164.827 19.7276L162.279 12.3081L159.627 19.7276H164.827Z" fill="url(#paint8_linear)"/>
<path d="M175.772 21.9V20.1326H177.092V21.9H175.772Z" fill="url(#paint9_linear)"/>
<path d="M177.909 17.4815C177.909 16.9496 178.001 16.4259 178.185 15.9104C178.377 15.3868 178.653 14.9204 179.013 14.5112C179.373 14.1021 179.813 13.7707 180.333 13.5171C180.853 13.2634 181.445 13.1366 182.109 13.1366C182.893 13.1366 183.569 13.3125 184.137 13.6643C184.713 14.0162 185.141 14.4744 185.421 15.039L184.149 15.935C184.037 15.6895 183.901 15.4849 183.741 15.3213C183.581 15.1495 183.409 15.0144 183.225 14.9163C183.041 14.8181 182.849 14.7485 182.649 14.7076C182.449 14.6585 182.253 14.634 182.061 14.634C181.645 14.634 181.281 14.7199 180.969 14.8917C180.665 15.0635 180.409 15.2886 180.201 15.5668C180.001 15.8368 179.849 16.1477 179.745 16.4996C179.641 16.8432 179.589 17.1869 179.589 17.5306C179.589 17.9151 179.649 18.2874 179.769 18.6475C179.889 18.9993 180.057 19.3103 180.273 19.5803C180.497 19.8503 180.761 20.0671 181.065 20.2308C181.377 20.3944 181.717 20.4763 182.085 20.4763C182.277 20.4763 182.477 20.4517 182.685 20.4026C182.893 20.3535 183.089 20.2758 183.273 20.1694C183.465 20.063 183.641 19.928 183.801 19.7644C183.961 19.5926 184.089 19.388 184.185 19.1507L185.541 19.9485C185.405 20.2758 185.209 20.5663 184.953 20.8199C184.705 21.0654 184.421 21.2741 184.101 21.4459C183.789 21.6177 183.453 21.7486 183.093 21.8387C182.733 21.9287 182.381 21.9737 182.037 21.9737C181.429 21.9737 180.873 21.8427 180.369 21.5809C179.865 21.3191 179.429 20.9795 179.061 20.5622C178.701 20.1367 178.417 19.658 178.209 19.1262C178.009 18.5861 177.909 18.0379 177.909 17.4815Z" fill="url(#paint10_linear)"/>
<path d="M190.205 21.9614C189.581 21.9614 189.013 21.8387 188.501 21.5932C187.997 21.3395 187.561 21.0081 187.193 20.599C186.833 20.1817 186.553 19.7071 186.353 19.1752C186.153 18.6434 186.053 18.0992 186.053 17.5428C186.053 16.9619 186.157 16.4055 186.365 15.8736C186.581 15.3417 186.873 14.8713 187.241 14.4621C187.617 14.053 188.061 13.7298 188.573 13.4925C189.085 13.247 189.641 13.1243 190.241 13.1243C190.857 13.1243 191.417 13.2552 191.921 13.5171C192.433 13.7707 192.869 14.1062 193.229 14.5235C193.589 14.9408 193.869 15.4154 194.069 15.9473C194.269 16.4791 194.369 17.0192 194.369 17.5674C194.369 18.1483 194.265 18.7048 194.057 19.2366C193.849 19.7603 193.561 20.2267 193.193 20.6358C192.825 21.0368 192.385 21.36 191.873 21.6055C191.361 21.8427 190.805 21.9614 190.205 21.9614ZM187.733 17.5428C187.733 17.9192 187.789 18.2834 187.901 18.6352C188.013 18.987 188.173 19.298 188.381 19.568C188.597 19.838 188.857 20.0549 189.161 20.2185C189.473 20.3822 189.825 20.464 190.217 20.464C190.617 20.464 190.969 20.3822 191.273 20.2185C191.585 20.0467 191.845 19.8217 192.053 19.5435C192.269 19.2653 192.429 18.9543 192.533 18.6107C192.645 18.2588 192.701 17.9029 192.701 17.5428C192.701 17.1664 192.641 16.8023 192.521 16.4505C192.409 16.0986 192.245 15.7877 192.029 15.5177C191.821 15.2477 191.561 15.0349 191.249 14.8794C190.945 14.7158 190.601 14.634 190.217 14.634C189.817 14.634 189.461 14.7199 189.149 14.8917C188.837 15.0554 188.577 15.2763 188.369 15.5545C188.161 15.8245 188.001 16.1355 187.889 16.4873C187.785 16.831 187.733 17.1828 187.733 17.5428Z" fill="url(#paint11_linear)"/>
<path d="M202.588 21.9V16.1314L200.392 20.4272H199.492L197.296 16.1314V21.9H195.64V13.1857H197.416L199.936 18.1443L202.48 13.1857H204.244V21.9H202.588Z" fill="url(#paint12_linear)"/>
<path fill-rule="evenodd" clip-rule="evenodd" d="M107.41 3.56903C113.461 0.624528 118.186 -0.478361 118.887 0.187535C119.491 0.757708 117.56 5.47308 115.618 7.75793C115.241 8.19493 109.564 9.96787 109.318 10.5256C109.1 11.0021 112.753 10.9293 114.354 10.6608C113.203 12.877 110.236 16.5998 108.179 18.6557C108.017 18.816 100.574 19.2301 100.351 19.4215C99.9138 19.8127 105.391 20.9905 104.922 21.3193C98.2291 26.0305 90.7652 28.1468 87.5584 26.1824C84.1843 28.0594 82 29 82 29L82.0627 27.5538C83.7335 26.6798 85.3021 25.812 86.8218 24.9484L86.7869 24.8902C86.5592 22.8134 87.2122 17.7568 92.4871 12.7084C92.4871 12.7084 94.2787 15.5177 94.8155 15.0599C95.3546 14.6063 96.958 10.2467 97.5622 9.791C99.7419 8.15747 100.755 7.23354 102.874 5.99539C103.427 5.66869 102.421 9.38938 102.967 9.08764C103.497 8.79423 106.19 8.11169 107.41 3.56903Z" fill="url(#paint13_linear)"/>
<defs>
<linearGradient id="paint0_linear" x1="117.076" y1="17.8088" x2="80.0761" y2="17.8088" gradientUnits="userSpaceOnUse">
<stop stop-color="#7D2F4D"/>
<stop offset="1" stop-color="#3A2F7D"/>
</linearGradient>
<linearGradient id="paint1_linear" x1="117.076" y1="17.8088" x2="80.0761" y2="17.8088" gradientUnits="userSpaceOnUse">
<stop stop-color="#7D2F4D"/>
<stop offset="1" stop-color="#3A2F7D"/>
</linearGradient>
<linearGradient id="paint2_linear" x1="117.076" y1="17.8088" x2="80.0761" y2="17.8088" gradientUnits="userSpaceOnUse">
<stop stop-color="#7D2F4D"/>
<stop offset="1" stop-color="#3A2F7D"/>
</linearGradient>
<linearGradient id="paint3_linear" x1="117.076" y1="17.8088" x2="80.0761" y2="17.8088" gradientUnits="userSpaceOnUse">
<stop stop-color="#7D2F4D"/>
<stop offset="1" stop-color="#3A2F7D"/>
</linearGradient>
<linearGradient id="paint4_linear" x1="117.076" y1="17.8088" x2="80.0761" y2="17.8088" gradientUnits="userSpaceOnUse">
<stop stop-color="#7D2F4D"/>
<stop offset="1" stop-color="#3A2F7D"/>
</linearGradient>
<linearGradient id="paint5_linear" x1="117.076" y1="17.8088" x2="80.0761" y2="17.8088" gradientUnits="userSpaceOnUse">
<stop stop-color="#7D2F4D"/>
<stop offset="1" stop-color="#3A2F7D"/>
</linearGradient>
<linearGradient id="paint6_linear" x1="117.076" y1="17.8088" x2="80.0761" y2="17.8088" gradientUnits="userSpaceOnUse">
<stop stop-color="#7D2F4D"/>
<stop offset="1" stop-color="#3A2F7D"/>
</linearGradient>
<linearGradient id="paint7_linear" x1="117.076" y1="17.8088" x2="80.0761" y2="17.8088" gradientUnits="userSpaceOnUse">
<stop stop-color="#7D2F4D"/>
<stop offset="1" stop-color="#3A2F7D"/>
</linearGradient>
<linearGradient id="paint8_linear" x1="117.076" y1="17.8088" x2="80.0761" y2="17.8088" gradientUnits="userSpaceOnUse">
<stop stop-color="#7D2F4D"/>
<stop offset="1" stop-color="#3A2F7D"/>
</linearGradient>
<linearGradient id="paint9_linear" x1="117.076" y1="17.8088" x2="80.0761" y2="17.8088" gradientUnits="userSpaceOnUse">
<stop stop-color="#7D2F4D"/>
<stop offset="1" stop-color="#3A2F7D"/>
</linearGradient>
<linearGradient id="paint10_linear" x1="117.076" y1="17.8088" x2="80.0761" y2="17.8088" gradientUnits="userSpaceOnUse">
<stop stop-color="#7D2F4D"/>
<stop offset="1" stop-color="#3A2F7D"/>
</linearGradient>
<linearGradient id="paint11_linear" x1="117.076" y1="17.8088" x2="80.0761" y2="17.8088" gradientUnits="userSpaceOnUse">
<stop stop-color="#7D2F4D"/>
<stop offset="1" stop-color="#3A2F7D"/>
</linearGradient>
<linearGradient id="paint12_linear" x1="117.076" y1="17.8088" x2="80.0761" y2="17.8088" gradientUnits="userSpaceOnUse">
<stop stop-color="#7D2F4D"/>
<stop offset="1" stop-color="#3A2F7D"/>
</linearGradient>
<linearGradient id="paint13_linear" x1="117.076" y1="17.8088" x2="80.0761" y2="17.8088" gradientUnits="userSpaceOnUse">
<stop stop-color="#7D2F4D"/>
<stop offset="1" stop-color="#3A2F7D"/>
</linearGradient>
</defs>
</svg>
