<svg width="80" height="63" viewBox="0 0 80 63" fill="red" xmlns="http://www.w3.org/2000/svg">
<path fill-rule="evenodd" clip-rule="evenodd" d="M54.9411 7.65771C68.0245 1.33999 78.239 -1.02636 79.7564 0.402378C81.0627 1.62574 76.8875 11.743 72.6871 16.6454C71.8732 17.583 59.5987 21.387 59.0661 22.5836C58.5938 23.606 66.4921 23.4498 69.9539 22.8738C67.4668 27.6288 61.0507 35.6164 56.6042 40.0276C56.2525 40.3714 40.1595 41.2599 39.6772 41.6707C38.7326 42.5101 50.575 45.0372 49.5601 45.7426C35.09 55.851 18.9518 60.3917 12.0182 56.1769C4.72287 60.2042 0 62.2223 0 62.2223L0.135658 59.1192C3.74815 57.244 7.13958 55.3822 10.4255 53.5293L10.3501 53.4042C9.85775 48.9484 11.2696 38.0988 22.6748 27.2672C22.6748 27.2672 26.5486 33.2947 27.7092 32.3124C28.8749 31.3391 32.3417 21.9853 33.648 21.0075C38.3608 17.5026 40.5514 15.5203 45.1336 12.8637C46.3294 12.1627 44.1539 20.1458 45.3346 19.4984C46.4802 18.8689 52.3034 17.4044 54.9411 7.65771Z" fill="#F2F2F2"/>
</svg>
