<svg width="205" height="33" viewBox="0 0 205 33" fill="none" xmlns="http://www.w3.org/2000/svg">
<path d="M12.818 23.6317V26.7777H0V8.31774H12.584V11.4637H3.588V15.9097H11.362V18.8217H3.588V23.6317H12.818Z" fill="white"/>
<path d="M20.2729 27.0377C19.1289 27.0377 18.0109 26.8557 16.9189 26.4917C15.8269 26.1277 14.8909 25.6077 14.1109 24.9317L15.4109 22.7477C16.2429 23.3371 17.0489 23.7877 17.8289 24.0997C18.6262 24.3944 19.4149 24.5417 20.1949 24.5417C20.8882 24.5417 21.4342 24.4117 21.8329 24.1517C22.2316 23.8917 22.4309 23.5191 22.4309 23.0337C22.4309 22.5484 22.1969 22.1931 21.7289 21.9677C21.2609 21.7424 20.4982 21.4824 19.4409 21.1877C18.5569 20.9451 17.8029 20.7111 17.1789 20.4857C16.5549 20.2604 16.0522 20.0091 15.6709 19.7317C15.2896 19.4371 15.0122 19.1077 14.8389 18.7437C14.6656 18.3624 14.5789 17.9117 14.5789 17.3917C14.5789 16.6984 14.7089 16.0744 14.9689 15.5197C15.2462 14.9651 15.6276 14.4971 16.1129 14.1157C16.5982 13.7171 17.1616 13.4137 17.8029 13.2057C18.4616 12.9977 19.1722 12.8937 19.9349 12.8937C20.9576 12.8937 21.9109 13.0411 22.7949 13.3357C23.6962 13.6304 24.5196 14.1071 25.2649 14.7657L23.8609 16.8717C23.1676 16.3517 22.4916 15.9704 21.8329 15.7277C21.1916 15.4851 20.5502 15.3637 19.9089 15.3637C19.3196 15.3637 18.8256 15.4851 18.4269 15.7277C18.0282 15.9704 17.8289 16.3604 17.8289 16.8977C17.8289 17.1404 17.8722 17.3397 17.9589 17.4957C18.0629 17.6517 18.2189 17.7904 18.4269 17.9117C18.6349 18.0331 18.9036 18.1544 19.2329 18.2757C19.5796 18.3797 20.0042 18.4924 20.5069 18.6137C21.4429 18.8564 22.2402 19.0991 22.8989 19.3417C23.5749 19.5844 24.1209 19.8617 24.5369 20.1737C24.9702 20.4857 25.2822 20.8497 25.4729 21.2657C25.6809 21.6644 25.7849 22.1497 25.7849 22.7217C25.7849 24.0564 25.2909 25.1137 24.3029 25.8937C23.3149 26.6564 21.9716 27.0377 20.2729 27.0377Z" fill="white"/>
<path d="M33.1967 27.0377C32.0527 27.0377 30.9347 26.8557 29.8427 26.4917C28.7507 26.1277 27.8147 25.6077 27.0347 24.9317L28.3347 22.7477C29.1667 23.3371 29.9727 23.7877 30.7527 24.0997C31.5501 24.3944 32.3387 24.5417 33.1187 24.5417C33.812 24.5417 34.3581 24.4117 34.7567 24.1517C35.1554 23.8917 35.3547 23.5191 35.3547 23.0337C35.3547 22.5484 35.1207 22.1931 34.6527 21.9677C34.1847 21.7424 33.4221 21.4824 32.3647 21.1877C31.4807 20.9451 30.7267 20.7111 30.1027 20.4857C29.4787 20.2604 28.9761 20.0091 28.5947 19.7317C28.2134 19.4371 27.9361 19.1077 27.7627 18.7437C27.5894 18.3624 27.5027 17.9117 27.5027 17.3917C27.5027 16.6984 27.6327 16.0744 27.8927 15.5197C28.1701 14.9651 28.5514 14.4971 29.0367 14.1157C29.5221 13.7171 30.0854 13.4137 30.7267 13.2057C31.3854 12.9977 32.0961 12.8937 32.8587 12.8937C33.8814 12.8937 34.8347 13.0411 35.7187 13.3357C36.6201 13.6304 37.4434 14.1071 38.1887 14.7657L36.7847 16.8717C36.0914 16.3517 35.4154 15.9704 34.7567 15.7277C34.1154 15.4851 33.4741 15.3637 32.8327 15.3637C32.2434 15.3637 31.7494 15.4851 31.3507 15.7277C30.9521 15.9704 30.7527 16.3604 30.7527 16.8977C30.7527 17.1404 30.7961 17.3397 30.8827 17.4957C30.9867 17.6517 31.1427 17.7904 31.3507 17.9117C31.5587 18.0331 31.8274 18.1544 32.1567 18.2757C32.5034 18.3797 32.9281 18.4924 33.4307 18.6137C34.3667 18.8564 35.1641 19.0991 35.8227 19.3417C36.4987 19.5844 37.0447 19.8617 37.4607 20.1737C37.8941 20.4857 38.2061 20.8497 38.3967 21.2657C38.6047 21.6644 38.7087 22.1497 38.7087 22.7217C38.7087 24.0564 38.2147 25.1137 37.2267 25.8937C36.2387 26.6564 34.8954 27.0377 33.1967 27.0377Z" fill="white"/>
<path d="M44.6905 27.0377C44.0319 27.0377 43.4165 26.9337 42.8445 26.7257C42.2725 26.5004 41.7785 26.1971 41.3625 25.8157C40.9465 25.4171 40.6172 24.9577 40.3745 24.4377C40.1492 23.9177 40.0365 23.3457 40.0365 22.7217C40.0365 22.0804 40.1752 21.4911 40.4525 20.9537C40.7472 20.3991 41.1459 19.9311 41.6485 19.5497C42.1685 19.1684 42.7839 18.8737 43.4945 18.6657C44.2052 18.4404 44.9852 18.3277 45.8345 18.3277C46.4412 18.3277 47.0305 18.3797 47.6025 18.4837C48.1919 18.5877 48.7119 18.7351 49.1625 18.9257V18.1457C49.1625 17.2444 48.9025 16.5511 48.3825 16.0657C47.8799 15.5804 47.1259 15.3377 46.1205 15.3377C45.3925 15.3377 44.6819 15.4677 43.9885 15.7277C43.2952 15.9877 42.5845 16.3691 41.8565 16.8717L40.7905 14.6617C42.5412 13.5004 44.4305 12.9197 46.4585 12.9197C48.4172 12.9197 49.9339 13.4051 51.0085 14.3757C52.1005 15.3291 52.6465 16.7157 52.6465 18.5357V22.7737C52.6465 23.1377 52.7072 23.3977 52.8285 23.5537C52.9672 23.7097 53.1839 23.7964 53.4785 23.8137V26.7777C52.8892 26.8991 52.3779 26.9597 51.9445 26.9597C51.2859 26.9597 50.7745 26.8124 50.4105 26.5177C50.0639 26.2231 49.8472 25.8331 49.7605 25.3477L49.6825 24.5937C49.0759 25.3911 48.3392 25.9977 47.4725 26.4137C46.6059 26.8297 45.6785 27.0377 44.6905 27.0377ZM45.6785 24.4897C46.2679 24.4897 46.8225 24.3857 47.3425 24.1777C47.8799 23.9697 48.2959 23.6924 48.5905 23.3457C48.9719 23.0511 49.1625 22.7217 49.1625 22.3577V20.7977C48.7465 20.6417 48.2959 20.5204 47.8105 20.4337C47.3252 20.3297 46.8572 20.2777 46.4065 20.2777C45.5052 20.2777 44.7685 20.4857 44.1965 20.9017C43.6245 21.3004 43.3385 21.8117 43.3385 22.4357C43.3385 23.0251 43.5639 23.5191 44.0145 23.9177C44.4652 24.2991 45.0199 24.4897 45.6785 24.4897Z" fill="white"/>
<path d="M55.8582 29.4297C56.1528 29.5164 56.4388 29.5771 56.7162 29.6117C56.9935 29.6637 57.2275 29.6897 57.4182 29.6897C57.6435 29.6897 57.8515 29.6464 58.0422 29.5597C58.2328 29.4731 58.4062 29.3171 58.5622 29.0917C58.7182 28.8837 58.8742 28.5891 59.0302 28.2077C59.1862 27.8264 59.3508 27.3497 59.5242 26.7777L54.1422 13.1537H57.7302L61.4222 23.7617L64.6982 13.1537H67.9742L62.2542 29.4817C61.9248 30.4351 61.3615 31.2151 60.5642 31.8217C59.7668 32.4284 58.7788 32.7317 57.6002 32.7317C57.3228 32.7317 57.0368 32.7057 56.7422 32.6537C56.4648 32.6191 56.1702 32.5497 55.8582 32.4457V29.4297Z" fill="white"/>
<path d="M74.7104 27.0377C73.5664 27.0377 72.4484 26.8557 71.3564 26.4917C70.2644 26.1277 69.3284 25.6077 68.5484 24.9317L69.8484 22.7477C70.6804 23.3371 71.4864 23.7877 72.2664 24.0997C73.0637 24.3944 73.8524 24.5417 74.6324 24.5417C75.3257 24.5417 75.8717 24.4117 76.2704 24.1517C76.6691 23.8917 76.8684 23.5191 76.8684 23.0337C76.8684 22.5484 76.6344 22.1931 76.1664 21.9677C75.6984 21.7424 74.9357 21.4824 73.8784 21.1877C72.9944 20.9451 72.2404 20.7111 71.6164 20.4857C70.9924 20.2604 70.4897 20.0091 70.1084 19.7317C69.7271 19.4371 69.4497 19.1077 69.2764 18.7437C69.1031 18.3624 69.0164 17.9117 69.0164 17.3917C69.0164 16.6984 69.1464 16.0744 69.4064 15.5197C69.6837 14.9651 70.0651 14.4971 70.5504 14.1157C71.0357 13.7171 71.5991 13.4137 72.2404 13.2057C72.8991 12.9977 73.6097 12.8937 74.3724 12.8937C75.3951 12.8937 76.3484 13.0411 77.2324 13.3357C78.1337 13.6304 78.9571 14.1071 79.7024 14.7657L78.2984 16.8717C77.6051 16.3517 76.9291 15.9704 76.2704 15.7277C75.6291 15.4851 74.9877 15.3637 74.3464 15.3637C73.7571 15.3637 73.2631 15.4851 72.8644 15.7277C72.4657 15.9704 72.2664 16.3604 72.2664 16.8977C72.2664 17.1404 72.3097 17.3397 72.3964 17.4957C72.5004 17.6517 72.6564 17.7904 72.8644 17.9117C73.0724 18.0331 73.3411 18.1544 73.6704 18.2757C74.0171 18.3797 74.4417 18.4924 74.9444 18.6137C75.8804 18.8564 76.6777 19.0991 77.3364 19.3417C78.0124 19.5844 78.5584 19.8617 78.9744 20.1737C79.4077 20.4857 79.7197 20.8497 79.9104 21.2657C80.1184 21.6644 80.2224 22.1497 80.2224 22.7217C80.2224 24.0564 79.7284 25.1137 78.7404 25.8937C77.7524 26.6564 76.4091 27.0377 74.7104 27.0377Z" fill="white"/>
<path d="M128.101 23.7357C128.95 23.7357 129.661 23.5624 130.233 23.2157C130.822 22.8691 131.29 22.4184 131.637 21.8637C132.001 21.3091 132.252 20.6764 132.391 19.9657C132.547 19.2377 132.625 18.4924 132.625 17.7297V8.31774H136.187V17.7297C136.187 18.9951 136.031 20.1824 135.719 21.2917C135.424 22.4011 134.947 23.3717 134.289 24.2037C133.647 25.0357 132.815 25.6944 131.793 26.1797C130.77 26.6651 129.548 26.9077 128.127 26.9077C126.653 26.9077 125.397 26.6564 124.357 26.1537C123.334 25.6337 122.502 24.9577 121.861 24.1257C121.219 23.2764 120.751 22.2971 120.457 21.1877C120.179 20.0784 120.041 18.9257 120.041 17.7297V8.31774H123.629V17.7297C123.629 18.5097 123.698 19.2637 123.837 19.9917C123.993 20.7024 124.244 21.3351 124.591 21.8897C124.955 22.4444 125.423 22.8951 125.995 23.2417C126.567 23.5711 127.269 23.7357 128.101 23.7357Z" fill="white"/>
<path d="M150.799 13.1537C150.677 13.0324 150.452 12.8677 150.123 12.6597C149.811 12.4517 149.421 12.2524 148.953 12.0617C148.502 11.8537 148.008 11.6804 147.471 11.5417C146.933 11.4031 146.387 11.3337 145.833 11.3337C144.845 11.3337 144.108 11.5157 143.623 11.8797C143.137 12.2437 142.895 12.7551 142.895 13.4137C142.895 13.7951 142.981 14.1157 143.155 14.3757C143.345 14.6184 143.614 14.8351 143.961 15.0257C144.307 15.2164 144.741 15.3897 145.261 15.5457C145.798 15.7017 146.413 15.8664 147.107 16.0397C148.008 16.2824 148.823 16.5424 149.551 16.8197C150.296 17.0971 150.92 17.4437 151.423 17.8597C151.943 18.2757 152.341 18.7784 152.619 19.3677C152.896 19.9397 153.035 20.6504 153.035 21.4997C153.035 22.4877 152.844 23.3371 152.463 24.0477C152.099 24.7411 151.596 25.3044 150.955 25.7377C150.331 26.1711 149.603 26.4917 148.771 26.6997C147.956 26.8904 147.098 26.9857 146.197 26.9857C144.81 26.9857 143.441 26.7777 142.089 26.3617C140.737 25.9457 139.523 25.3564 138.449 24.5937L140.035 21.4997C140.191 21.6557 140.468 21.8637 140.867 22.1237C141.283 22.3664 141.768 22.6177 142.323 22.8777C142.877 23.1204 143.493 23.3284 144.169 23.5017C144.845 23.6751 145.538 23.7617 146.249 23.7617C148.225 23.7617 149.213 23.1291 149.213 21.8637C149.213 21.4651 149.1 21.1271 148.875 20.8497C148.649 20.5724 148.329 20.3297 147.913 20.1217C147.497 19.9137 146.994 19.7231 146.405 19.5497C145.815 19.3764 145.157 19.1857 144.429 18.9777C143.545 18.7351 142.773 18.4751 142.115 18.1977C141.473 17.9031 140.936 17.5651 140.503 17.1837C140.069 16.7851 139.74 16.3344 139.515 15.8317C139.307 15.3117 139.203 14.6964 139.203 13.9857C139.203 13.0497 139.376 12.2177 139.723 11.4897C140.069 10.7617 140.546 10.1551 141.153 9.66974C141.777 9.18441 142.496 8.82041 143.311 8.57774C144.125 8.31774 145.001 8.18774 145.937 8.18774C147.237 8.18774 148.433 8.39574 149.525 8.81174C150.617 9.21041 151.57 9.68707 152.385 10.2417L150.799 13.1537Z" fill="white"/>
<path d="M160.693 8.31774H163.865L170.885 26.7777H167.193L165.477 22.1757H159.029L157.339 26.7777H153.647L160.693 8.31774ZM164.827 19.6537L162.279 12.3997L159.627 19.6537H164.827Z" fill="white"/>
<path d="M175.772 21.7777V20.0497H177.092V21.7777H175.772Z" fill="white"/>
<path d="M177.909 17.4577C177.909 16.9377 178.001 16.4257 178.185 15.9217C178.377 15.4097 178.653 14.9537 179.013 14.5537C179.373 14.1537 179.813 13.8297 180.333 13.5817C180.853 13.3337 181.445 13.2097 182.109 13.2097C182.893 13.2097 183.569 13.3817 184.137 13.7257C184.713 14.0697 185.141 14.5177 185.421 15.0697L184.149 15.9457C184.037 15.7057 183.901 15.5057 183.741 15.3457C183.581 15.1777 183.409 15.0457 183.225 14.9497C183.041 14.8537 182.849 14.7857 182.649 14.7457C182.449 14.6977 182.253 14.6737 182.061 14.6737C181.645 14.6737 181.281 14.7577 180.969 14.9257C180.665 15.0937 180.409 15.3137 180.201 15.5857C180.001 15.8497 179.849 16.1537 179.745 16.4977C179.641 16.8337 179.589 17.1697 179.589 17.5057C179.589 17.8817 179.649 18.2457 179.769 18.5977C179.889 18.9417 180.057 19.2457 180.273 19.5097C180.497 19.7737 180.761 19.9857 181.065 20.1457C181.377 20.3057 181.717 20.3857 182.085 20.3857C182.277 20.3857 182.477 20.3617 182.685 20.3137C182.893 20.2657 183.089 20.1897 183.273 20.0857C183.465 19.9817 183.641 19.8497 183.801 19.6897C183.961 19.5217 184.089 19.3217 184.185 19.0897L185.541 19.8697C185.405 20.1897 185.209 20.4737 184.953 20.7217C184.705 20.9617 184.421 21.1657 184.101 21.3337C183.789 21.5017 183.453 21.6297 183.093 21.7177C182.733 21.8057 182.381 21.8497 182.037 21.8497C181.429 21.8497 180.873 21.7217 180.369 21.4657C179.865 21.2097 179.429 20.8777 179.061 20.4697C178.701 20.0537 178.417 19.5857 178.209 19.0657C178.009 18.5377 177.909 18.0017 177.909 17.4577Z" fill="white"/>
<path d="M190.205 21.8377C189.581 21.8377 189.013 21.7177 188.501 21.4777C187.997 21.2297 187.561 20.9057 187.193 20.5057C186.833 20.0977 186.553 19.6337 186.353 19.1137C186.153 18.5937 186.053 18.0617 186.053 17.5177C186.053 16.9497 186.157 16.4057 186.365 15.8857C186.581 15.3657 186.873 14.9057 187.241 14.5057C187.617 14.1057 188.061 13.7897 188.573 13.5577C189.085 13.3177 189.641 13.1977 190.241 13.1977C190.857 13.1977 191.417 13.3257 191.921 13.5817C192.433 13.8297 192.869 14.1577 193.229 14.5657C193.589 14.9737 193.869 15.4377 194.069 15.9577C194.269 16.4777 194.369 17.0057 194.369 17.5417C194.369 18.1097 194.265 18.6537 194.057 19.1737C193.849 19.6857 193.561 20.1417 193.193 20.5417C192.825 20.9337 192.385 21.2497 191.873 21.4897C191.361 21.7217 190.805 21.8377 190.205 21.8377ZM187.733 17.5177C187.733 17.8857 187.789 18.2417 187.901 18.5857C188.013 18.9297 188.173 19.2337 188.381 19.4977C188.597 19.7617 188.857 19.9737 189.161 20.1337C189.473 20.2937 189.825 20.3737 190.217 20.3737C190.617 20.3737 190.969 20.2937 191.273 20.1337C191.585 19.9657 191.845 19.7457 192.053 19.4737C192.269 19.2017 192.429 18.8977 192.533 18.5617C192.645 18.2177 192.701 17.8697 192.701 17.5177C192.701 17.1497 192.641 16.7937 192.521 16.4497C192.409 16.1057 192.245 15.8017 192.029 15.5377C191.821 15.2737 191.561 15.0657 191.249 14.9137C190.945 14.7537 190.601 14.6737 190.217 14.6737C189.817 14.6737 189.461 14.7577 189.149 14.9257C188.837 15.0857 188.577 15.3017 188.369 15.5737C188.161 15.8377 188.001 16.1417 187.889 16.4857C187.785 16.8217 187.733 17.1657 187.733 17.5177Z" fill="white"/>
<path d="M202.588 21.7777V16.1377L200.392 20.3377H199.492L197.296 16.1377V21.7777H195.64V13.2577H197.416L199.936 18.1057L202.48 13.2577H204.244V21.7777H202.588Z" fill="white"/>
<path fill-rule="evenodd" clip-rule="evenodd" d="M107.486 3.50066C113.537 0.612564 118.262 -0.469197 118.963 0.183942C119.567 0.743192 117.636 5.36823 115.694 7.60931C115.317 8.03794 109.64 9.77692 109.394 10.3239C109.176 10.7913 112.829 10.7199 114.43 10.4566C113.279 12.6303 110.312 16.2818 108.255 18.2983C108.093 18.4555 100.65 18.8617 100.427 19.0494C99.9898 19.4332 105.467 20.5884 104.998 20.9109C98.3051 25.5319 90.8412 27.6076 87.6344 25.6808C84.2603 27.5219 82.076 28.4444 82.076 28.4444L82.1387 27.0259C83.8095 26.1687 85.3781 25.3175 86.8978 24.4705L86.8629 24.4134C86.6352 22.3764 87.2882 17.4166 92.5631 12.465C92.5631 12.465 94.3547 15.2204 94.8915 14.7714C95.4306 14.3264 97.034 10.0504 97.6382 9.60343C99.8179 8.0012 100.831 7.09497 102.95 5.88054C103.503 5.56009 102.497 9.2095 103.043 8.91355C103.573 8.62576 106.266 7.95629 107.486 3.50066Z" fill="white"/>
</svg>
